# xmcd
#
# Track frame offsets:
#	150
#	33864
#	59235
#	82623
#	111079
#	144035
#	172521
#	198725
#	230601
#	253815
#	292107
#
# Disc length: 4291 seconds
#
# Revision: 1
# Processed by: cddbd v1.5.1PL2 Copyright (c) Steve Scherf et al.
# Submitted via: audiograbber 1.83.01
#
DISCID=9310c10b
DTITLE=Vario - 20 Años de Democracia - Vol 1
DYEAR=1900
DGENRE=
TTITLE0=1983/84
TTITLE1=1985
TTITLE2=1986
TTITLE3=1987
TTITLE4=1988
TTITLE5=1989
TTITLE6=1990
TTITLE7=1991
TTITLE8=1992
TTITLE9=1993
TTITLE10=Pista de Datos
EXTD=
EXTT0=
EXTT1=
EXTT2=
EXTT3=
EXTT4=
EXTT5=
EXTT6=
EXTT7=
EXTT8=
EXTT9=
EXTT10=
PLAYORDER=
